<svg width="197" height="236" viewBox="0 0 197 236" fill="none" xmlns="http://www.w3.org/2000/svg">
<path d="M105.599 202.748C74.1777 188.242 46.6694 165.978 35.6032 131.669C25.6148 100.702 36.0301 71.3099 73.0834 74.2314C90.6236 75.6142 110.491 88.9122 112.412 107.478C114.553 128.162 87.1596 127.086 75.1713 120.135C47.1712 103.898 32.4647 66.4105 47.8429 34.5776C66.0542 -3.11979 101.69 21.2825 101.457 21.4511" stroke="#F9C02B" stroke-width="6.79294" stroke-miterlimit="1.5" stroke-linecap="round" stroke-linejoin="round"/>
<path d="M69.7112 216.867C72.3482 214.102 75.8439 212.726 79.2613 211.174C90.4819 206.077 104.205 204.155 116.129 208.228C105.249 200.019 93.9061 185.714 95.3973 171.521" stroke="#F9C02B" stroke-width="6.79294" stroke-miterlimit="1.5" stroke-linecap="round" stroke-linejoin="round"/>
</svg>
