<svg width="79" height="223" viewBox="0 0 79 223" fill="none" xmlns="http://www.w3.org/2000/svg">
<path d="M36.6365 7.46023C26.7222 5.61125 13.3198 3.41194 3.35217 3.27883M3.35217 3.27883C2.20372 3.2631 4.63874 11.5325 4.78321 11.9042C7.94425 20.0613 12.0758 27.5544 16.4504 35.1009M3.35217 3.27883C53.7095 24.9054 80.1611 73.5943 69.8253 111.275C68.8009 115.009 67.6821 119.073 66.2064 123.019M66.2064 123.019C63.8563 129.304 60.6013 135.292 55.3818 139.181C50.5647 142.769 42.7777 145.414 37.0306 142.871C26.2951 138.119 27.4346 122.59 37.3305 117.103C46.0265 112.282 60.4259 115.06 66.2064 123.019ZM66.2064 123.019C66.3283 123.187 66.4464 123.357 66.5605 123.53C94.106 165.161 57.4207 210.976 17.4196 219.257" stroke="#018DE2" stroke-width="5.58817" stroke-miterlimit="1.5" stroke-linecap="round" stroke-linejoin="round"/>
</svg>
