<svg width="2563" height="2304" viewBox="0 0 2563 2304" fill="none" xmlns="http://www.w3.org/2000/svg">
<path d="M1376 321.745C1377.24 321.745 1595.64 320.121 1723.21 344.082C1816.52 357.484 1868.54 407.437 1891.66 486.631C1936.66 624.713 1977.94 847.269 1996.11 1085.26C1996.52 1092.16 1997.35 1101.1 1997.76 1108H2333C2330.52 788.787 2297.08 487.444 2251.25 297.784C2227.31 184.882 2160.43 109.343 2030.79 80.9144C1891.66 46.8001 1704.63 22.4327 1498.21 10.249C1497.38 10.249 1433.39 7 1432.15 7L1376 321.745Z" fill="#4DAFFF"/>
<path d="M339.248 1229.35C338.42 1221.63 338.007 1214.33 337.593 1206.61C319.389 969.107 326.009 743.374 349.591 600.059C360.347 518.454 404.201 461.615 494.805 434.413C642.089 386.506 862.6 349.967 1104.62 332.103C1155.1 328.449 1204.74 325.607 1251.91 323.577L1309 2.02997C1262.66 0.811987 1215.5 0 1166.68 0C825.779 0 513.836 28.4196 302.427 79.9808C172.934 108.4 105.498 183.509 81.5022 296.781C33.5111 495.312 0 811.175 0 1145.71C0 1193.22 2.06858 1287 2.06858 1287L339.248 1229.35Z" fill="#0C2D78"/>
<path d="M1047.59 1969.28C877.813 1974.16 723.36 1967.66 609.902 1948.57C516.32 1935.16 464.146 1885.2 440.957 1805.99C399.135 1673.97 369.321 1515.55 351.101 1349L7 1408.31C16.5239 1618.72 48.8222 1862.04 81.1205 1995.28C105.137 2108.21 172.218 2183.76 302.24 2212.2C488.162 2257.69 754.831 2285.31 1048 2291L1047.59 1969.28Z" fill="#EC7000"/>
<path d="M1297.84 2292.22L1298.25 1851H1166.73L1166.32 2292.22H1297.84ZM1411.99 1952.57V2141.49C1411.99 2248.75 1469.06 2302.38 1570.39 2302.38C1606.79 2302.38 1636.98 2298.31 1651.87 2293.84V2195.12C1642.35 2197.56 1624.98 2199.99 1605.13 2199.99C1562.95 2199.99 1543.51 2179.68 1543.92 2132.96V1952.57H1658.07V1852.22H1543.92V1718.55L1412.4 1741.31V1851.81H1346.64V1952.16L1411.99 1952.57ZM1854.94 2303.59C1907.88 2303.59 1945.93 2282.47 1972.81 2246.71L1974.47 2292.62H2097.3V2033.42C2097.3 1907.47 2025.75 1840.44 1897.54 1840.44C1831.78 1840.44 1777.18 1850.59 1724.25 1870.1V1973.7C1776.36 1954.2 1828.06 1942.41 1876.45 1942.41C1936.83 1942.41 1970.74 1969.63 1970.74 2017.17C1960.4 2016.36 1943.03 2015.54 1926.49 2015.54C1787.94 2015.54 1700.67 2071.61 1700.67 2167.49C1701.08 2250.78 1760.64 2303.59 1854.94 2303.59ZM1939.31 2095.58C1949.65 2095.58 1966.19 2096.39 1972.4 2097.2V2132.14C1972.4 2178.87 1940.14 2211.37 1894.23 2210.96C1853.7 2210.96 1828.47 2193.09 1828.47 2157.33C1828.47 2116.71 1868.17 2095.58 1939.31 2095.58ZM2313.61 2304C2368.2 2304 2405.42 2284.5 2434.79 2245.5L2436.44 2293.03H2562.59L2563 1851.81H2431.48V2111.83C2431.48 2165.46 2404.6 2199.18 2360.34 2199.18C2316.92 2199.18 2293.75 2170.33 2293.75 2116.71V1851.41H2162.23V2137.83C2162.23 2239.4 2221.38 2304 2313.61 2304ZM2479.46 1792.5V1680.36L2260.67 1718.55V1792.5H2479.46Z" fill="#0C2D78"/>
<path d="M1232.49 1805.5C1278.4 1805.5 1310.24 1775.03 1310.66 1731.55C1310.66 1687.27 1278.81 1657.61 1232.9 1657.61C1187 1657.61 1155.15 1688.08 1155.15 1731.55C1154.74 1775.43 1186.58 1805.5 1232.49 1805.5Z" fill="#0C2D78"/>
<path d="M1174.59 1322.43C1143.98 1322.43 1122.89 1333.4 1106.35 1354.94L1105.52 1328.53H1034.8V1574.33H1108.83V1429.69C1108.83 1400.03 1123.72 1380.94 1148.53 1380.94C1172.93 1380.94 1185.75 1397.19 1185.75 1426.85V1574.73H1259.79V1415.07C1259.37 1358.59 1226.29 1322.43 1174.59 1322.43Z" fill="#0C2D78"/>
<path d="M844.959 1580.83C875.564 1580.83 896.244 1569.86 912.787 1548.32L913.614 1574.73H984.338L984.751 1328.93H910.719V1473.57C910.719 1503.23 895.83 1522.32 871.015 1522.32C846.613 1522.32 833.792 1506.07 833.792 1476.41V1328.53H759.76V1488.19C760.173 1545.07 792.847 1580.83 844.959 1580.83Z" fill="#0C2D78"/>
<path d="M596.393 1574.73H522.361V1257.02H730.809V1318.37H596.393V1391.91H706.821V1453.26H596.806V1574.73H596.393Z" fill="#0C2D78"/>
<path d="M1404.54 1580.83C1383.86 1580.83 1365.67 1575.55 1350.36 1565.39C1334.65 1555.23 1322.65 1540.2 1313.97 1521.1C1305.28 1502.01 1301.15 1479.26 1301.15 1452.85C1301.15 1426.04 1305.28 1403.28 1314.38 1383.78C1323.07 1364.28 1335.47 1349.66 1351.19 1338.69C1366.91 1327.72 1385.1 1322.84 1405.78 1322.84C1432.67 1322.84 1454.59 1332.19 1470.72 1350.47V1235.49H1544.33V1574.33H1477.33L1476.51 1544.67C1469.48 1556.04 1459.55 1564.58 1447.14 1571.08C1433.91 1577.98 1419.85 1580.83 1404.54 1580.83ZM1423.57 1523.14C1438.87 1523.14 1450.45 1517.04 1459.14 1504.45C1467.82 1492.26 1471.96 1474.79 1471.96 1452.44C1471.96 1429.69 1467.82 1412.22 1459.14 1399.63C1450.45 1387.03 1438.87 1380.94 1423.57 1380.94C1408.26 1380.94 1396.68 1387.03 1388 1399.63C1379.31 1412.22 1375.18 1429.29 1375.18 1451.63C1375.18 1474.38 1379.31 1491.85 1388 1504.45C1396.68 1516.64 1408.68 1523.14 1423.57 1523.14Z" fill="#0C2D78"/>
<path d="M1962.47 1580.83C1936.42 1580.83 1913.67 1575.55 1894.64 1565.39C1875.62 1555.23 1860.73 1540.2 1850.39 1520.7C1840.05 1501.2 1834.67 1478.45 1834.67 1452.04C1834.67 1426.44 1840.05 1403.69 1851.22 1384.19C1862.38 1364.69 1877.27 1349.66 1896.71 1338.69C1916.15 1327.72 1938.9 1322.43 1964.54 1322.43C1976.12 1322.43 1987.29 1324.06 1998.45 1326.5C2009.21 1329.34 2018.31 1333 2024.51 1337.47V1395.16C2010.45 1385 1993.9 1380.13 1973.64 1380.13C1953.37 1380.13 1937.66 1386.22 1926.08 1398.81C1914.5 1411 1909.12 1428.47 1909.12 1450.82C1909.12 1472.76 1914.91 1490.23 1926.9 1503.23C1938.48 1516.23 1954.61 1522.73 1974.47 1522.73C1995.97 1522.73 2013.76 1517.45 2027.82 1506.88V1564.17C2020.79 1569.04 2011.28 1573.11 1999.69 1576.36C1988.11 1579.61 1975.71 1580.83 1962.47 1580.83ZM1931.87 1570.26H1972.4L1963.3 1601.14C1978.6 1602.36 1990.6 1607.24 1999.69 1615.77C2008.79 1624.3 2013.34 1634.46 2013.34 1646.64C2013.34 1663.3 2006.73 1676.3 1993.9 1685.65C1981.08 1694.99 1962.47 1699.46 1938.48 1699.46C1928.97 1699.46 1918.22 1697.83 1907.05 1695.4V1659.64C1911.6 1660.86 1916.15 1661.68 1920.7 1662.08C1925.25 1662.49 1928.97 1662.89 1932.28 1662.89C1950.89 1662.89 1960.4 1657.21 1960.4 1645.43C1960.4 1634.86 1950.48 1629.58 1931.04 1629.58H1916.15L1931.87 1570.26Z" fill="#0C2D78"/>
<path d="M2214.35 1299.28C2204.42 1299.28 2195.73 1297.24 2187.88 1292.78C2180.02 1288.31 2173.4 1284.24 2167.2 1280.18C2160.99 1276.12 2155.62 1273.68 2150.24 1273.68C2141.14 1273.68 2136.59 1280.59 2136.59 1294.4V1298.06H2092.34V1294.4C2092.34 1272.46 2096.89 1255.8 2105.99 1244.43C2115.09 1233.05 2127.91 1227.37 2145.28 1227.37C2155.2 1227.37 2164.3 1229.4 2171.75 1233.87C2179.19 1238.33 2186.22 1242.4 2192.43 1246.46C2198.22 1250.52 2204.01 1252.96 2208.97 1252.96C2218.07 1252.96 2222.62 1246.05 2222.62 1232.24V1228.58H2267.7V1232.24C2267.7 1254.18 2263.15 1270.84 2254.05 1282.21C2244.54 1293.59 2231.72 1299.28 2214.35 1299.28Z" fill="#0C2D78"/>
<path d="M2439.75 1580.83C2414.94 1580.83 2393.43 1575.54 2374.82 1564.98C2356.21 1554.42 2342.14 1539.39 2332.22 1520.29C2322.29 1501.2 2316.92 1478.44 2316.92 1452.44C2316.92 1426.44 2321.88 1403.69 2332.22 1384.19C2342.56 1364.69 2356.62 1349.65 2375.23 1339.09C2393.84 1328.53 2415.35 1323.25 2439.75 1323.25C2464.57 1323.25 2486.07 1328.53 2504.68 1339.09C2523.3 1349.65 2537.36 1364.69 2547.28 1383.78C2557.21 1402.88 2562.59 1425.63 2562.59 1451.63C2562.59 1477.63 2557.62 1500.38 2547.28 1519.88C2536.94 1539.39 2522.88 1554.42 2504.68 1564.98C2486.07 1575.54 2464.57 1580.83 2439.75 1580.83ZM2439.75 1523.13C2455.05 1523.13 2466.63 1517.04 2475.32 1504.45C2484 1492.26 2488.14 1474.79 2488.14 1452.44C2488.14 1429.69 2484 1412.22 2475.32 1399.63C2466.63 1387.03 2455.05 1380.94 2439.75 1380.94C2424.45 1380.94 2412.87 1387.03 2404.18 1399.63C2395.5 1412.22 2391.36 1429.28 2391.36 1451.63C2391.36 1474.38 2395.5 1491.85 2404.18 1504.45C2412.45 1516.63 2424.45 1523.13 2439.75 1523.13Z" fill="#0C2D78"/>
<path d="M2168.02 1322.84C2131.22 1322.84 2100.61 1328.53 2070.83 1339.5V1397.19C2099.78 1386.22 2129.15 1379.72 2156.44 1379.72C2190.36 1379.72 2209.38 1394.75 2209.38 1421.57C2203.59 1421.16 2193.67 1420.75 2184.57 1420.75C2106.81 1420.75 2057.6 1452.04 2057.6 1505.26C2057.6 1551.57 2091.1 1580.83 2144.04 1581.23C2173.81 1581.23 2194.91 1569.45 2210.21 1549.54L2211.04 1575.14H2280.11V1430.91C2280.11 1360.62 2239.99 1322.84 2168.02 1322.84ZM2209.8 1485.35C2209.8 1511.35 2191.6 1529.23 2165.96 1529.23C2143.21 1529.23 2129.15 1519.07 2129.15 1499.16C2129.15 1476.41 2151.48 1464.63 2191.19 1464.63C2196.98 1464.63 2206.07 1465.04 2209.8 1465.44V1485.35Z" fill="#0C2D78"/>
<path d="M1686.2 1322.84C1649.39 1322.84 1618.78 1328.53 1589 1339.5V1397.19C1617.95 1386.22 1647.32 1379.72 1674.61 1379.72C1708.53 1379.72 1727.55 1394.75 1727.55 1421.57C1721.76 1421.16 1711.84 1420.75 1702.74 1420.75C1624.98 1420.75 1575.77 1452.04 1575.77 1505.26C1575.77 1551.57 1609.27 1580.83 1662.21 1581.23C1691.99 1581.23 1713.08 1569.45 1728.38 1549.54L1729.21 1575.14H1798.28V1430.91C1798.28 1360.62 1758.16 1322.84 1686.2 1322.84ZM1727.97 1485.35C1727.97 1511.35 1709.77 1529.23 1684.13 1529.23C1661.38 1529.23 1647.32 1519.07 1647.32 1499.16C1647.32 1476.41 1669.65 1464.63 1709.36 1464.63C1715.15 1464.63 1724.25 1465.04 1727.97 1465.44V1485.35Z" fill="#0C2D78"/>
</svg>
