<svg width="102" height="57" viewBox="0 0 102 57" fill="none" xmlns="http://www.w3.org/2000/svg">
<path fill-rule="evenodd" clip-rule="evenodd" d="M40.2899 3.38474C40.3639 7.13864 44.7665 13.1743 47.7632 12.0334C49.0581 11.5182 49.058 10.9662 47.6521 6.95465C44.2855 -2.57731 40.2159 0.366896 40.2899 3.38474ZM64.7074 11.8862C63.6715 14.7937 67.2602 15.3089 69.7389 12.6223C72.2547 9.86205 74.9554 5.74015 76.3983 2.94312C77.9891 0.256505 74.8814 -1.1052 72.2916 1.10297C69.221 3.67918 65.4103 9.86205 64.7074 11.8862ZM13.7267 9.64124C11.4329 10.5613 19.1282 20.0565 22.2358 20.1301C25.8615 20.2037 26.1574 19.394 23.6416 16.045C19.683 10.7453 16.3534 8.57396 13.7267 9.64124ZM48.5032 23.2951C47.1343 24.6568 45.5064 26.5338 44.8774 27.4171C39.476 35.4401 39.402 35.5138 36.9232 33.6368C31.1888 29.3677 21.7548 26.4602 23.6046 33.8944C24.7515 38.3844 28.1552 46.5914 29.0431 49.3149C31.3369 56.4914 32.5577 57.6691 36.6273 56.7122C46.7273 54.2832 61.1559 54.2096 71.4778 56.5282C74.0306 57.1171 74.1786 56.8227 74.4375 51.7071C74.9555 41.3654 80.9487 31.2814 80.9487 28.0427C80.9487 24.3992 74.0306 27.1227 64.6335 34.4465L63.6716 35.1825L62.3027 34.2624C59.491 32.3855 58.0851 33.8576 59.6759 36.9859C60.9708 39.5253 62.0437 40.3717 64.8924 39.01C66.5202 38.2372 68.777 36.765 71.9587 34.52C73.2166 33.6368 74.2526 33.0111 74.2526 33.1216C74.2526 33.6368 71.9958 43.2792 71.9958 43.316L66.3723 42.8376C61.8957 42.6535 61.3778 45.0089 66.0023 45.7082C66.4832 45.7818 71.2188 46.3706 71.2188 46.3706C71.2188 46.3706 71.0338 48.4316 70.5159 49.6093C69.961 50.787 69.036 51.0814 67.5192 50.5662C55.6434 46.6651 36.2944 51.4126 36.2574 51.4126C35.5544 51.523 29.1171 34.6305 29.6351 34.1152C29.7091 34.0416 30.4859 34.5201 31.3738 35.1825C41.3998 42.4327 42.4358 42.2119 49.0581 31.6494L52.1657 26.681L53.3865 28.4844C56.9382 33.7472 61.9697 31.4286 59.158 27.5643C58.1961 26.2762 56.6053 24.3624 54.0526 21.3814C52.9057 20.0197 51.2039 20.6085 48.5032 23.2951ZM96.6353 22.7431C95.3034 23.516 88.3481 30.1405 87.5342 31.3918C85.7953 34.152 89.421 34.7777 92.7136 32.2751C96.5612 29.3676 102 24.3625 102 23.7C102.037 22.3751 98.4481 21.7126 96.6353 22.7431ZM4.99556 40.3717C10.397 41.6966 13.5046 42.0279 14.7255 41.3654C16.7233 40.2981 15.7984 39.5253 11.0629 38.3476C10.619 38.2372 6.25336 37.0227 3.25667 37.0227C1.11089 37.0227 -3.66155 38.2003 4.99556 40.3717Z" fill="#FC773D"/>
</svg>
