<svg width="140" height="92" viewBox="0 0 140 92" fill="none" xmlns="http://www.w3.org/2000/svg">
<path d="M26.7788 43.6075C26.7816 44.319 29.6964 47.1106 34.3328 50.8459C50.2104 63.5904 48.9499 64.2181 50.7465 63.5671C52.6695 62.8704 52.133 62.2667 42.2979 53.5747C31.7468 44.2585 26.8278 41.0816 26.7788 43.6075Z" fill="#FC773D"/>
<path d="M35.3271 72.175C35.1181 72.6212 35.3967 72.8341 37.0217 73.6704C39.4499 74.8996 42.6456 74.6253 42.1385 73.2414C41.6983 72.1184 35.7935 71.1794 35.3271 72.175Z" fill="#FC773D"/>
<path d="M34.1624 81.7459C20.4909 82.1393 15.8965 82.664 14.7677 84.042C13.8274 85.1523 14.7203 85.3988 18.3393 85.028C21.4222 84.6805 27.1558 84.3702 32.8342 84.2223C37.491 84.1025 38.5079 83.9051 39.5151 83.0556C40.8787 81.849 39.7212 81.5844 34.1624 81.7459Z" fill="#FC773D"/>
<path d="M44.5465 30.3009C44.54 30.9872 47.9326 36.256 50.3713 39.3911C50.9631 40.1457 52.3496 42.2085 53.446 43.9488C55.5513 47.3472 55.7516 47.5029 57.1939 46.9803C58.5603 46.4853 58.5787 46.5353 54.6842 40.9921C47.9063 31.3348 44.5885 27.8345 44.5465 30.3009Z" fill="#FC773D"/>
<path d="M24.31 67.5312C26.9037 68.5865 28.0735 69.9013 29.9459 69.2228C32.957 68.1318 33.0097 67.8847 28.0981 65.5886C19 61.3323 10.9271 59.0131 9.87418 60.3636C8.89719 61.6867 14.9401 63.0028 24.31 67.5312Z" fill="#FC773D"/>
<path d="M113.949 28.8388C115.282 26.5318 115.938 24.4128 115.606 23.507C115.145 22.2489 113.438 22.4397 112.457 23.9069C105.894 33.6096 100.328 46.343 102.291 47.0853C104.219 47.8116 105.362 46.3145 109.558 37.5835C111.419 33.7455 113.388 29.8116 113.949 28.8388Z" fill="#FC773D"/>
<path d="M71.2214 21.4337C71.3682 24.2592 72.7529 30.5408 74.2278 44.3426C74.5172 47.0879 74.5356 47.138 75.6219 47.5994C76.5011 47.9649 77.8493 47.7332 78.3344 47.1014C78.7459 46.5818 76.5174 27.4382 75.3074 21.0078C74.795 18.5143 71.0374 18.1942 71.2214 21.4337Z" fill="#FC773D"/>
<path d="M129.187 35.1456C122.278 40.0714 110.316 50.7612 110.002 52.3286C109.768 53.411 112.334 53.4504 113.658 52.372L118.563 48.3146C126.108 42.0751 135.127 33.6772 134.915 33.0985C134.456 31.9251 132.913 32.4847 129.187 35.1456Z" fill="#FC773D"/>
<path d="M91.9853 19.354C91.8225 20.2396 91.2604 22.6948 89.3276 29.4659C88.4415 32.5231 87.3504 38.6188 87.5717 39.2226C88.0143 40.4304 89.925 35.0068 92.7342 24.5264C93.3355 22.2565 93.9829 20.1123 94.1944 19.7507C95.109 18.0227 92.2971 17.702 91.9853 19.354Z" fill="#FC773D"/>
</svg>
