<svg xmlns="http://www.w3.org/2000/svg" width="566.85" height="135.89"><g data-name="Group 2437"><path data-name="Path 4122" d="M186.37 83.758a22.9 22.9 0 0 0 10 2.48c4.13 0 6.31-1.71 6.31-4.3s-1.88-3.89-6.66-5.6c-6.6-2.3-10.91-6-10.91-11.73 0-6.78 5.66-12 15-12a24.11 24.11 0 0 1 10.13 2l-2 7.25a18.81 18.81 0 0 0-8.31-1.89c-3.89 0-5.78 1.77-5.78 3.83 0 2.54 2.24 3.65 7.37 5.6 7 2.59 10.32 6.25 10.32 11.85 0 6.66-5.13 12.38-16 12.38a26 26 0 0 1-11.26-2.48zm40.55-30.47v39.73h-9v-39.73zm9.55.53a79.369 79.369 0 0 1 12-.82c5.9 0 10 .88 12.85 3.12a10.08 10.08 0 0 1 3.66 8.31 10.55 10.55 0 0 1-7 9.79v.17c2.77 1.12 4.3 3.78 5.31 7.43 1.23 4.48 2.47 9.67 3.24 11.2h-9.2c-.65-1.18-1.59-4.36-2.77-9.26s-2.77-6.3-6.42-6.36h-2.71v15.62h-8.91zm8.91 17.1h3.53c4.48 0 7.13-2.25 7.13-5.72 0-3.66-2.47-5.48-6.6-5.54a22.309 22.309 0 0 0-4.06.29zm36.13-17.63v39.73h-9v-39.73zm43.08 19.45c0 13-7.89 20.93-19.51 20.93-11.79 0-18.68-8.9-18.68-20.22 0-11.91 7.6-20.81 19.33-20.81 12.2 0 18.86 9.14 18.86 20.1zm-28.7.53c0 7.78 3.65 13.26 9.66 13.26s9.55-5.77 9.55-13.49c0-7.13-3.42-13.26-9.61-13.26s-9.6 5.77-9.6 13.49zm53.54-20h9v32.18h15.81v7.55h-24.81zm38.43 0v39.73h-9v-39.71zm9.55.53a71.85 71.85 0 0 1 11.61-.82c5.48 0 8.84.53 11.73 2.23a8.66 8.66 0 0 1 4.77 7.78c0 3.54-2.06 6.84-6.54 8.49v.12c4.54 1.24 7.9 4.66 7.9 9.79a10.59 10.59 0 0 1-4.13 8.43c-2.88 2.3-7.72 3.59-15.62 3.59a68.526 68.526 0 0 1-9.72-.59zm8.9 15.21h2.95c4.71 0 7.24-1.95 7.24-4.89s-2.29-4.6-6.36-4.6a24.171 24.171 0 0 0-3.83.24zm0 17.63a30.3 30.3 0 0 0 3.48.11c4.06 0 7.66-1.59 7.66-5.72s-3.6-5.6-8.08-5.6h-3.06zm33.59-3.84l-2.83 10.2h-9.33l12.14-39.73h11.86l12.32 39.73h-9.72l-3.07-10.2zm10.08-6.72l-2.48-8.43c-.71-2.35-1.41-5.3-2-7.66h-.12c-.59 2.36-1.18 5.36-1.83 7.66l-2.35 8.43zm18.27 16.92v-39.71h10.49l8.25 14.56a113.19 113.19 0 0 1 6.48 13.62h.18a147.785 147.785 0 0 1-.77-16.63v-11.55h8.26v39.73h-9.4l-8.49-15.33a148.38 148.38 0 0 1-6.9-14h-.18c.24 5.25.35 10.85.35 17.33v12zm65.72-16.8h-14.62v9.43h16.33v7.37h-25.35v-39.71h24.52v7.37h-15.5v8.25h14.62zm7.42 7.54a22.9 22.9 0 0 0 10 2.48c4.13 0 6.31-1.71 6.31-4.3s-1.89-3.89-6.66-5.6c-6.6-2.3-10.91-6-10.91-11.73 0-6.78 5.66-12 15-12a24.15 24.15 0 0 1 10.13 2l-2 7.25a18.81 18.81 0 0 0-8.31-1.89c-3.89 0-5.78 1.77-5.78 3.83 0 2.54 2.24 3.65 7.37 5.6 7 2.59 10.31 6.25 10.31 11.85 0 6.66-5.12 12.38-16 12.38a25.88 25.88 0 0 1-11.26-2.48zm-200.71-15.32h-9.38v9.38h9.38zm-117.7-26.64l-5 7.25h7.2l7.19-7.25zm296.55 0l-5.9 7.25h6.25l3-3.65h.12l2.94 3.65h6.31l-6-7.25z" fill="#0076c0"/><path data-name="Path 4123" d="M33.07 131.888a3.27 3.27 0 0 0-1-1.41c-.74-.6-1.48-.57-1.94 0s-.37 1.06.14 2c.64 1.06.81 2 .17 2.76a2.05 2.05 0 0 1-3 0 3.25 3.25 0 0 1-1-1.28l.67-.42a3.07 3.07 0 0 0 .83 1.13 1.17 1.17 0 0 0 1.73 0c.43-.52.3-1-.22-2-.64-1.13-.75-2-.08-2.79a2.221 2.221 0 0 1 3.26 0 3.68 3.68 0 0 1 1.11 1.52z" fill="#00a6eb"/><path data-name="Path 4124" d="M19.22 121.838c1.85-1.63 3.82-1.37 5 0a3.348 3.348 0 0 1-.61 4.81 3.461 3.461 0 0 1-5 0 3.3 3.3 0 0 1 .61-4.81zm3.75 4.09c1.14-1 1.63-2.53.68-3.63s-2.54-.83-3.76.24c-1.07.94-1.7 2.47-.68 3.64s2.53.79 3.76-.25z" fill="#00a6eb"/><path data-name="Path 4125" d="M15.48 110.138a4.49 4.49 0 0 1 1.26 1.41 3.36 3.36 0 0 1-1.25 4.92 3.57 3.57 0 0 1-5.17-1.24 4.14 4.14 0 0 1-.62-1.61l.76-.2a3.66 3.66 0 0 0 .51 1.39 2.67 2.67 0 0 0 4 .84 2.61 2.61 0 0 0 1-3.86 3.83 3.83 0 0 0-1-1.13z" fill="#00a6eb"/><path data-name="Path 4126" d="M5.99 106.408l6.57-2.87.37.85-6.57 2.87z" fill="#00a6eb"/><path data-name="Path 4127" d="M5.95 94.618l.77 2.68 2.48-.72-.86-3 .74-.22 1.12 3.87-6.88 2-1.08-3.68.75-.22.82 2.83 2.17-.62-.77-2.68z" fill="#00a6eb"/><path data-name="Path 4128" d="M.74 88.028a13.438 13.438 0 0 1-.37-1.94 4 4 0 0 1 .55-3 3.26 3.26 0 0 1 2.43-1.3 3.76 3.76 0 0 1 2.89.7 4.4 4.4 0 0 1 1.39 3 13.8 13.8 0 0 1 .11 1.68zm6.19-1.65a5.62 5.62 0 0 0-.06-.94 2.76 2.76 0 0 0-3.37-2.68 2.56 2.56 0 0 0-2.41 3.21 5.91 5.91 0 0 0 .22 1.07z" fill="#00a6eb"/><path data-name="Path 4129" d="M4.79 73.938l2.21.86v.95l-7-2.8v-1.11l7.28-2.07v1l-2.29.65zm-.6-2.39l-2.1.6c-.47.13-.9.22-1.32.3.42.12.85.26 1.28.42l2 .8z" fill="#00a6eb"/><path data-name="Path 4130" d="M1.23 62.108a12.241 12.241 0 0 1 .29-2 4.15 4.15 0 0 1 1.51-2.63 3.31 3.31 0 0 1 2.74-.41 3.78 3.78 0 0 1 2.48 1.62 4.43 4.43 0 0 1 .31 3.32 15.278 15.278 0 0 1-.46 1.62zm6.38.5a5.541 5.541 0 0 0 .26-.9 2.75 2.75 0 0 0-2.29-3.65c-1.64-.39-2.91.31-3.34 2.22a6.35 6.35 0 0 0-.15 1.07z" fill="#00a6eb"/><path data-name="Path 4131" d="M9.74 47.248l-1.05 2.57 2.38 1 1.18-2.87.71.29-1.52 3.73-6.63-2.71 1.46-3.58.72.29-1.11 2.72 2.1.86 1-2.57z" fill="#00a6eb"/><path data-name="Path 4132" d="M14.09 32.108a9 9 0 0 1 .89-1.43 2.91 2.91 0 0 1 1.61-1.25 1.48 1.48 0 0 1 1.37.28 1.74 1.74 0 0 1 .53 1.92 1.83 1.83 0 0 1 2.32-.09 1.91 1.91 0 0 1 .78 1.35 3.61 3.61 0 0 1-1 2.38 11.282 11.282 0 0 1-.93 1.09zm2.89 1l.51-.67a1.389 1.389 0 0 0 0-2c-.53-.46-1.32-.19-1.88.55a3.71 3.71 0 0 0-.44.7zm2.74 2.07a5.261 5.261 0 0 0 .5-.59c.58-.76.84-1.68 0-2.31s-1.6-.16-2.21.64l-.47.62z" fill="#00a6eb"/><path data-name="Path 4133" d="M27.01 23.058l-2 1.94 1.81 1.85 2.22-2.16.54.56-2.84 2.81-5-5.15 2.78-2.69.53.55-2.11 2.06 1.58 1.62 2-1.94z" fill="#00a6eb"/><path data-name="Path 4134" d="M34.43 21.198l-4.09-5.88.82-.58 4 1.67a19.059 19.059 0 0 1 2.35 1.14c-.62-.74-1.14-1.44-1.77-2.35l-1.72-2.46.72-.5 4.09 5.88-.76.53-4-1.69a20.82 20.82 0 0 1-2.46-1.19c.56.71 1.07 1.4 1.75 2.38l1.75 2.51z" fill="#00a6eb"/><path data-name="Path 4135" d="M46.58 10.168l-2.51 1.21 1.11 2.32 2.81-1.34.33.71-3.58 1.73-3.09-6.46 3.48-1.67.34.7-2.73 1.27 1 2 2.51-1.2z" fill="#00a6eb"/><path data-name="Path 4136" d="M52.12 3.938l3.69-1.12.23.74-2.81.86.7 2.28 2.6-.79.21.73-2.59.79 1 3.1-.89.28z" fill="#00a6eb"/><path data-name="Path 4137" d="M63.89 1.088l1.19 7.07-.92.15-1.18-7.06z" fill="#00a6eb"/><path data-name="Path 4138" d="M76.74 6.998a4.43 4.43 0 0 1-1.88.41 3.36 3.36 0 0 1-3.65-3.53 3.57 3.57 0 0 1 3.63-3.87 4 4 0 0 1 1.71.27l-.2.76a3.36 3.36 0 0 0-1.46-.25 2.66 2.66 0 0 0-2.7 3 2.61 2.61 0 0 0 2.84 2.8 3.81 3.81 0 0 0 1.5-.34z" fill="#00a6eb"/><path data-name="Path 4139" d="M87.11 4.728l-2.75-.35-.33 2.57 3.08.39-.1.77-4-.5.89-7.12 3.84.49-.1.77-2.9-.37-.28 2.24 2.76.35z" fill="#00a6eb"/><path data-name="Path 4140" d="M93.2 9.358l2-6.87 1 .29 1.17 4.13a19 19 0 0 1 .57 2.6c.19-.94.42-1.79.73-2.86l.85-2.88.84.25-2 6.87-.9-.26-1.15-4.14a23.525 23.525 0 0 1-.6-2.67c-.2.88-.42 1.71-.76 2.86l-.87 2.93z" fill="#00a6eb"/><path data-name="Path 4141" d="M108.61 8.248l-2-1 .35-.7 4.78 2.36-.35.7-2-1-2.79 5.74-.84-.41z" fill="#00a6eb"/><path data-name="Path 4142" d="M118.65 17.698l-2.29-1.57-1.46 2.13 2.55 1.75-.44.64-3.27-2.28 4.06-5.9 3.19 2.19-.44.63-2.43-1.66-1.33 1.92 2.29 1.58z" fill="#00a6eb"/><path data-name="Path 4143" d="M132.57 25.198a13.3 13.3 0 0 1 1.38 1.41 4.07 4.07 0 0 1 1.19 2.79 3.31 3.31 0 0 1-1.31 2.44 3.8 3.8 0 0 1-2.8 1 4.46 4.46 0 0 1-2.83-1.75 15.145 15.145 0 0 1-1-1.34zm-4.24 4.8a7.177 7.177 0 0 0 .56.75 2.75 2.75 0 0 0 4.29.37 2.56 2.56 0 0 0 .24-4 4.81 4.81 0 0 0-.78-.76z" fill="#00a6eb"/><path data-name="Path 4144" d="M139.33 40.928l-1.43-2.38-2.16 1.31 1.59 2.67-.67.4-2.07-3.46 6.16-3.68 2 3.33-.67.4-1.5-2.53-1.95 1.15 1.43 2.4z" fill="#00a6eb"/><path data-name="Path 4145" d="M143.04 55.028a3.27 3.27 0 0 0 0 1.73c.26.9.9 1.3 1.59 1.1s.91-.66 1-1.7c.07-1.23.45-2.1 1.42-2.37a2.07 2.07 0 0 1 2.52 1.69 3.33 3.33 0 0 1 .09 1.62h-.79a2.82 2.82 0 0 0-.05-1.4c-.27-.94-.94-1.14-1.4-1-.65.2-.85.7-.94 1.76-.12 1.29-.5 2-1.52 2.34s-2.22-.22-2.68-1.84a3.841 3.841 0 0 1-.06-1.89z" fill="#00a6eb"/><path data-name="Path 4146" d="M148.18 68.758l-.36-2.76-2.56.33.39 3.08-.76.1-.52-4 7.1-.93.5 3.83-.77.1-.39-2.92-2.23.3.36 2.76z" fill="#00a6eb"/><path data-name="Path 4147" d="M145.24 75.798l7.16.22v1l-3.69 2.19a20.556 20.556 0 0 1-2.37 1.21 28.624 28.624 0 0 1 2.94 0l3 .09v.87l-7.15-.22v-.94l3.69-2.16a23.584 23.584 0 0 1 2.43-1.26h-3l-3.06-.1z" fill="#00a6eb"/><path data-name="Path 4148" d="M151.12 90.208l-2.93-.6-.71 3.39 2.94.61-.19.91-7-1.45.19-.91 3.29.68.7-3.4-3.29-.68.19-.91 7 1.46z" fill="#00a6eb"/><path data-name="Path 4149" d="M142.39 106.548c-2.28-.92-2.94-2.79-2.25-4.49a3.314 3.314 0 0 1 4.57-1.63c2.01.81 3 2.72 2.25 4.49s-2.59 2.42-4.57 1.63zm2-5.19c-1.42-.57-3-.31-3.54 1s.39 2.63 1.9 3.24c1.32.54 3 .41 3.55-1s-.48-2.67-1.94-3.25z" fill="#00a6eb"/><path data-name="Path 4150" d="M142.09 114.478a10 10 0 0 1-.81 1.59 2.88 2.88 0 0 1-1.54 1.48 1.77 1.77 0 0 1-1.46-.23 1.89 1.89 0 0 1-.85-2.11 1.79 1.79 0 0 1-1.78.15 11.32 11.32 0 0 0-2-.56l.5-.82a11.268 11.268 0 0 1 1.71.49c1 .34 1.47.21 1.94-.49l.46-.74-2.68-1.69.48-.78zm-3.26-.93l-.5.81a1.41 1.41 0 0 0 .31 2.09c.78.48 1.48.12 2-.7a4.518 4.518 0 0 0 .41-.82z" fill="#00a6eb"/><path data-name="Path 4151" d="M130.88 122.098l-1.21-2 .62-.71 3.82 6.52-.73.85-7-2.85.64-.75 2.21.9zm-1 2.25l2 .82c.46.19.85.39 1.23.58-.26-.36-.52-.73-.75-1.12l-1.11-1.89z" fill="#00a6eb"/><path data-name="Path 4152" d="M122.74 128.898a3.38 3.38 0 0 0-1.57.71c-.72.61-.83 1.35-.36 1.9s1 .57 2 .23c1.15-.44 2.1-.44 2.76.34a2.06 2.06 0 0 1-.53 3 3.15 3.15 0 0 1-1.44.75l-.29-.74a2.79 2.79 0 0 0 1.26-.61c.75-.63.66-1.32.35-1.69s-1-.49-2-.14c-1.22.42-2.07.37-2.75-.44s-.71-2.11.59-3.2a3.59 3.59 0 0 1 1.7-.82z" fill="#00a6eb"/><path data-name="Path 4153" d="M107.52 53.938l-19.41-19.15-7.39 10.42z" fill="#0076c0"/><path data-name="Path 4154" d="M75.77 24.808l-5.18-4.11-28.9 11.76 23.04 7.53z" fill="#0076c0"/><path data-name="Path 4155" d="M107.52 29.688L79 20.378l-3.23 4.43 12.34 9.98z" fill="#0076c0"/><path data-name="Path 4156" d="M64.73 39.988l11.79 36.42 4.19-31.2z" fill="#0076c0"/><path data-name="Rectangle 2978" fill="#0076c0" d="M70.91 17.071l4.465-4.154 4.154 4.465-4.465 4.154z"/><path data-name="Path 4157" d="M64.72 39.988L40.5 52.528l7.63 10.24z" fill="#0054a4"/><path data-name="Path 4158" d="M27.21 61.178l-5.51 3.65 2.26 31.13 14.26-19.6z" fill="#0054a4"/><path data-name="Path 4159" d="M41.66 32.478l-17.67 24.26 3.22 4.44 13.29-8.65z" fill="#0054a4"/><path data-name="Path 4160" d="M48.13 62.768l-9.91 13.59 38.29.05z" fill="#0054a4"/><path data-name="Rectangle 2979" fill="#0054a4" d="M15.783 57.871l5.53-2.574 2.574 5.53-5.53 2.574z"/><path data-name="Path 4161" d="M38.22 76.378l4.44 26.91 12.11-4.11z" fill="#003e8c"/><path data-name="Path 4162" d="M46.78 118.598l1.77 6.37 30.3 7.47-14.22-19.63z" fill="#003e8c"/><path data-name="Path 4163" d="M23.96 95.988l17.6 24.3 5.22-1.69-4.12-15.31z" fill="#003e8c"/><path data-name="Path 4164" d="M54.77 99.178l9.86 13.63 11.88-36.39z" fill="#003e8c"/><path data-name="Path 4165" d="M39.38 122.388l.74 6.07 6.05-.75-.74-6.05z" fill="#003e8c"/><path data-name="Path 4166" d="M64.65 112.818l26.96 4.09-.16-12.78z" fill="#00a6eb"/><path data-name="Path 4167" d="M107.45 117.738l6.6.27 16.47-26.51-23.05 7.46z" fill="#00a6eb"/><path data-name="Path 4168" d="M78.89 132.448l28.55-9.24.01-5.47-15.84-.83z" fill="#00a6eb"/><path data-name="Path 4169" d="M91.45 104.128l16.02-5.17-30.95-22.53z" fill="#00a6eb"/><path data-name="Rectangle 2980" fill="#00a6eb" d="M108.764 125.936l1.177-5.984 5.975 1.175-1.178 5.984z"/><path data-name="Path 4170" d="M107.47 98.948l12.22-24.37-12.2-3.81z" fill="#008fd7"/><path data-name="Path 4171" d="M125.36 59.768l2.32-6.2-20.13-23.85-.03 24.23z" fill="#008fd7"/><path data-name="Path 4172" d="M130.54 91.468l.04-30-5.22-1.7-5.67 14.81z" fill="#008fd7"/><path data-name="Path 4173" d="M107.52 53.948l-31 22.47 30.97-5.65z" fill="#008fd7"/><path data-name="Rectangle 2981" fill="#008fd7" d="M128.253 58.073l2.965-5.331 5.331 2.964-2.965 5.332z"/></g></svg>