<svg width="165" height="196" viewBox="0 0 165 196" fill="none" xmlns="http://www.w3.org/2000/svg">
<path fill-rule="evenodd" clip-rule="evenodd" d="M109.264 2.29832C70.2355 -5.5693 35.2727 14.7333 20.2074 53.8342C12.3582 74.2062 11.9763 90.851 19.1488 108.898L23.7345 120.476L19.0135 122.43C3.62991 128.579 -4.81101 154.194 3.18444 170.105C22.6661 208.932 89.5881 202.075 85.0881 161.851C84.3496 155.528 84.4762 155.2 87.3436 155.173C175.704 154.877 195.354 19.4304 109.264 2.29832ZM143.314 93.5295C132.99 122.383 105.479 145.179 73.1355 139.321C60.2257 136.988 58.2457 139.244 62.6933 150.769C70.1138 170.232 51.7044 189.177 34.0199 180.287C15.5696 170.915 18.2866 141.207 38.3226 135.342C46.5788 132.862 47.9946 130.012 43.2663 124.982C34.7887 115.678 32.1452 87.1126 37.6914 67.3626C62.5347 -18.5369 173.99 8.55661 143.314 93.5295Z" fill="#F54B14" fill-opacity="0.5"/>
</svg>
