<svg width="85" height="78" viewBox="0 0 85 78" fill="none" xmlns="http://www.w3.org/2000/svg">
<path d="M36.5096 24.017C38.9888 19.9569 40.2304 17.9268 42.083 17.9268C43.9356 17.9268 45.1772 19.9569 47.6564 24.017L48.2988 25.0678C49.0038 26.2223 49.3563 26.7977 49.9046 27.1766C50.4529 27.559 51.1423 27.7019 52.5092 27.9843L53.7547 28.2416C58.5722 29.2352 60.9809 29.732 61.5528 31.4154C62.1285 33.0953 60.4835 34.8466 57.2013 38.3528L56.3514 39.2606C55.4193 40.2542 54.9532 40.7546 54.7456 41.3693C54.5302 41.9841 54.6007 42.6489 54.7456 43.9784L54.8709 45.1865C55.3683 49.8614 55.6151 52.1989 54.115 53.2389C52.6149 54.2754 50.3628 53.3319 45.8508 51.4376L44.6837 50.9444C43.4029 50.4083 42.7645 50.1366 42.083 50.1366C41.4054 50.1366 40.7631 50.4083 39.4823 50.9444L38.3152 51.4376C33.8032 53.3319 31.5511 54.279 30.051 53.2389C28.5509 52.2024 28.7977 49.8614 29.2951 45.1865L29.4204 43.9784C29.5653 42.6489 29.6358 41.9841 29.4204 41.3693C29.2128 40.7546 28.7468 40.2542 27.8146 39.2606L26.9647 38.3528C23.6825 34.8502 22.0375 33.0988 22.6133 31.4154C23.1851 29.7356 25.5899 29.2352 30.4074 28.2416L31.6568 27.9843C33.0277 27.6984 33.7092 27.559 34.2614 27.1801C34.8098 26.7977 35.1623 26.2223 35.8673 25.0714L36.5096 24.017Z" stroke="white" stroke-width="5.42308"/>
<path d="M42.6667 3.41895V10.5672V3.41895ZM42.6667 67.7529V74.9011V67.7529ZM3.5 39.16H11.3333H3.5ZM74 39.16H81.8333H74Z" fill="white"/>
<path d="M42.6667 3.41895V10.5672M42.6667 67.7529V74.9011M3.5 39.16H11.3333M74 39.16H81.8333" stroke="white" stroke-width="5.42308" stroke-linecap="round"/>
<path d="M19.5 56.9479L20.8434 55.722M65.1566 15.2845L66.5 14.0586M66.5 56.9479L65.1566 55.722M20.8434 15.2845L19.5 14.0586" stroke="white" stroke-width="5.42308" stroke-linecap="round"/>
</svg>
