<svg width="116" height="106" viewBox="0 0 116 106" fill="none" xmlns="http://www.w3.org/2000/svg">
<path d="M50.0307 36.5449C53.5016 30.8607 55.2398 28.0186 57.8334 28.0186C60.4271 28.0186 62.1653 30.8607 65.6362 36.5449L66.5355 38.0161C67.5225 39.6323 68.016 40.4379 68.7837 40.9683C69.5513 41.5037 70.5164 41.7038 72.4301 42.0991L74.1738 42.4594C80.9183 43.8504 84.2905 44.5459 85.0911 46.9027C85.8972 49.2545 83.5942 51.7063 78.9991 56.615L77.8092 57.8859C76.5042 59.277 75.8517 59.9775 75.5611 60.8382C75.2595 61.6988 75.3582 62.6295 75.5611 64.4909L75.7365 66.1822C76.4329 72.7271 76.7784 75.9995 74.6783 77.4556C72.5781 78.9067 69.4252 77.5857 63.1084 74.9337L61.4744 74.2432C59.6813 73.4927 58.7875 73.1124 57.8334 73.1124C56.8848 73.1124 55.9856 73.4927 54.1925 74.2432L52.5585 74.9337C46.2417 77.5857 43.0888 78.9117 40.9886 77.4556C38.8885 76.0045 39.234 72.7271 39.9304 66.1822L40.1058 64.4909C40.3087 62.6295 40.4074 61.6988 40.1058 60.8382C39.8152 59.9775 39.1627 59.277 37.8577 57.8859L36.6678 56.615C32.0727 51.7113 29.7697 49.2595 30.5758 46.9027C31.3764 44.551 34.7431 43.8504 41.4876 42.4594L43.2368 42.0991C45.156 41.6988 46.1101 41.5037 46.8832 40.9733C47.6509 40.4379 48.1444 39.6323 49.1314 38.0211L50.0307 36.5449Z" stroke="white" stroke-width="5.42308"/>
<g opacity="0.5">
<path d="M57.8333 3V13.0075V3ZM57.8333 93.0676V103.075V93.0676ZM3 53.0375H13.9667H3ZM101.7 53.0375H112.667H101.7Z" fill="white"/>
<path d="M57.8333 3V13.0075M57.8333 93.0675V103.075M3 53.0375H13.9667M101.7 53.0375H112.667" stroke="white" stroke-width="5.42308" stroke-linecap="round"/>
</g>
<path d="M24.9338 83.0611L26.8146 81.3449M88.8531 24.7324L90.7338 23.0161M90.7338 83.0611L88.8531 81.3449M26.8146 24.7324L24.9338 23.0161" stroke="white" stroke-width="5.42308" stroke-linecap="round"/>
</svg>
