<svg width="85" height="78" viewBox="0 0 85 78" fill="none" xmlns="http://www.w3.org/2000/svg">
<path d="M37.0933 26.9604C39.5726 22.9002 40.8142 20.8701 42.6667 20.8701C44.5193 20.8701 45.7609 22.9002 48.2402 26.9604L48.8825 28.0112C49.5875 29.1656 49.94 29.7411 50.4883 30.1199C51.0367 30.5023 51.726 30.6453 53.0929 30.9277L54.3384 31.185C59.1559 32.1786 61.5647 32.6754 62.1365 34.3588C62.7122 36.0386 61.0672 37.7899 57.7851 41.2961L56.9352 42.204C56.003 43.1976 55.5369 43.6979 55.3293 44.3127C55.1139 44.9274 55.1844 45.5922 55.3293 46.9218L55.4547 48.1298C55.9521 52.8048 56.1988 55.1422 54.6987 56.1823C53.1987 57.2188 50.9466 56.2752 46.4346 54.381L45.2674 53.8877C43.9867 53.3516 43.3482 53.08 42.6667 53.08C41.9892 53.08 41.3468 53.3516 40.0661 53.8877L38.8989 54.381C34.3869 56.2752 32.1348 57.2224 30.6347 56.1823C29.1347 55.1458 29.3814 52.8048 29.8788 48.1298L30.0042 46.9218C30.1491 45.5922 30.2196 44.9274 30.0042 44.3127C29.7966 43.6979 29.3305 43.1976 28.3983 42.204L27.5484 41.2961C24.2662 37.7935 22.6212 36.0422 23.197 34.3588C23.7688 32.679 26.1737 32.1786 30.9912 31.185L32.2406 30.9277C33.6114 30.6417 34.2929 30.5023 34.8452 30.1235C35.3935 29.7411 35.746 29.1656 36.451 28.0148L37.0933 26.9604Z" stroke="white" stroke-width="5.42308"/>
<g opacity="0.5">
<path d="M42.6667 3V10.1482V3ZM42.6667 67.334V74.4822V67.334ZM3.5 38.7411H11.3333H3.5ZM74 38.7411H81.8333H74Z" fill="white"/>
<path d="M42.6667 3V10.1482M42.6667 67.334V74.4822M3.5 38.7411H11.3333M74 38.7411H81.8333" stroke="white" stroke-width="5.42308" stroke-linecap="round"/>
</g>
<path d="M19.1669 60.1867L20.5103 58.9607M64.8235 18.5233L66.1669 17.2974M66.1669 60.1867L64.8235 58.9607M20.5103 18.5233L19.1669 17.2974" stroke="white" stroke-width="5.42308" stroke-linecap="round"/>
</svg>
