<svg width="85" height="78" viewBox="0 0 85 78" fill="none" xmlns="http://www.w3.org/2000/svg">
<path d="M36.5933 26.9609C39.0726 22.9007 40.3142 20.8706 42.1667 20.8706C44.0193 20.8706 45.2609 22.9007 47.7402 26.9609L48.3825 28.0117C49.0875 29.1661 49.44 29.7415 49.9883 30.1204C50.5367 30.5028 51.226 30.6458 52.5929 30.9281L53.8384 31.1855C58.6559 32.1791 61.0647 32.6759 61.6365 34.3593C62.2123 36.0391 60.5672 37.7904 57.2851 41.2966L56.4352 42.2045C55.503 43.1981 55.0369 43.6984 54.8293 44.3132C54.6139 44.9279 54.6844 45.5927 54.8293 46.9223L54.9547 48.1303C55.4521 52.8053 55.6988 55.1427 54.1987 56.1828C52.6987 57.2193 50.4466 56.2757 45.9346 54.3814L44.7674 53.8882C43.4867 53.3521 42.8482 53.0805 42.1667 53.0805C41.4892 53.0805 40.8468 53.3521 39.5661 53.8882L38.3989 54.3814C33.8869 56.2757 31.6348 57.2229 30.1347 56.1828C28.6347 55.1463 28.8814 52.8053 29.3788 48.1303L29.5042 46.9223C29.6491 45.5927 29.7196 44.9279 29.5042 44.3132C29.2966 43.6984 28.8305 43.1981 27.8983 42.2045L27.0484 41.2966C23.7662 37.794 22.1212 36.0427 22.697 34.3593C23.2688 32.6795 25.6737 32.1791 30.4912 31.1855L31.7406 30.9281C33.1114 30.6422 33.7929 30.5028 34.3452 30.124C34.8935 29.7415 35.246 29.1661 35.951 28.0152L36.5933 26.9609Z" stroke="white" stroke-width="5.42308"/>
<g opacity="0.5">
<path d="M42.1667 3V10.1482V3ZM42.1667 67.334V74.4822V67.334ZM3 38.7411H10.8333H3ZM73.5 38.7411H81.3333H73.5Z" fill="white"/>
<path d="M42.1667 3V10.1482M42.1667 67.334V74.4822M3 38.7411H10.8333M73.5 38.7411H81.3333" stroke="white" stroke-width="5.42308" stroke-linecap="round"/>
</g>
<path d="M18.667 60.1867L20.0104 58.9607M64.3236 18.5233L65.667 17.2974M65.667 60.1867L64.3236 58.9607M20.0104 18.5233L18.667 17.2974" stroke="white" stroke-width="5.42308" stroke-linecap="round"/>
</svg>
