<svg width="40" height="40" viewBox="0 0 40 40" fill="none" xmlns="http://www.w3.org/2000/svg">
<path fill-rule="evenodd" clip-rule="evenodd" d="M14.9791 2.87877C9.45313 3.16289 5.40947 8.77733 5.05131 16.6264C4.94201 19.1099 6.87775 19.677 9.63634 18.8043C12.5584 17.8537 16.3773 15.2672 19.652 11.5369C23.1757 7.48754 20.5334 2.57794 14.9791 2.87877ZM16.8526 5.55859C19.0044 7.71171 17.6928 10.1267 12.1807 14.002L8.97039 16.266L9.46027 14.0713C11.0217 7.12803 14.455 3.15124 16.8526 5.55859ZM28.4795 10.7821C24.5865 11.508 17.4972 17.0606 16.7504 19.9789C16.2622 21.887 17.6487 22.17 24.9574 21.6484C30.7315 21.2365 33.549 20.881 35.0556 19.7598C40.0384 16.0838 34.8591 9.59224 28.4795 10.7821ZM33.1923 14.2363C33.9169 16.3591 30.0393 19.3612 26.2669 19.6156C23.1747 19.829 21.0896 19.8454 21.3663 19.6054C21.513 19.4995 22.4445 18.7571 23.4379 17.959C28.1288 14.2083 32.6063 12.5078 33.1923 14.2363ZM16.3417 24.7535C11.2073 24.3486 8.57234 27.262 13.9591 30.793C14.8999 31.4165 16.8581 33.0177 18.3118 34.3465C22.5444 38.2756 24.9797 38.9467 27.6883 36.9611C29.7761 35.4384 30.1647 32.2371 29.2241 29.5569C26.9171 22.9632 19.1113 24.96 16.3417 24.7535ZM27.1088 29.9722C28.2218 30.9507 27.7978 32.4208 26.066 33.5801C23.7307 35.1351 22.233 34.6323 18.5381 31.032L15.8549 28.432C16.3716 28.4685 18.2199 28.6305 21.361 28.6928C24.2496 28.7144 26.1692 29.1577 27.1088 29.9722Z" fill="white"/>
</svg>
