<svg width="40" height="40" viewBox="0 0 40 40" fill="none" xmlns="http://www.w3.org/2000/svg">
<path fill-rule="evenodd" clip-rule="evenodd" d="M14.979 2.87877C9.45301 3.16289 5.40935 8.77733 5.05119 16.6264C4.94188 19.1099 6.87763 19.677 9.63622 18.8043C12.5583 17.8537 16.3772 15.2672 19.6518 11.5369C23.1755 7.48754 20.5332 2.57794 14.979 2.87877ZM16.8525 5.55859C19.0043 7.71171 17.6926 10.1267 12.1806 14.002L8.97027 16.266L9.46015 14.0713C11.0216 7.12803 14.4549 3.15124 16.8525 5.55859ZM28.4794 10.7821C24.5864 11.508 17.4971 17.0606 16.7503 19.9789C16.262 21.887 17.6485 22.17 24.9573 21.6484C30.7314 21.2365 33.5489 20.881 35.0555 19.7598C40.0383 16.0838 34.859 9.59224 28.4794 10.7821ZM33.1922 14.2363C33.9168 16.3591 30.0392 19.3612 26.2668 19.6156C23.1746 19.829 21.0895 19.8454 21.3662 19.6054C21.5129 19.4995 22.4444 18.7571 23.4378 17.959C28.1287 14.2083 32.6062 12.5078 33.1922 14.2363ZM16.3416 24.7535C11.2072 24.3486 8.57222 27.262 13.959 30.793C14.8998 31.4165 16.8579 33.0177 18.3117 34.3465C22.5442 38.2756 24.9796 38.9467 27.6882 36.9611C29.776 35.4384 30.1646 32.2371 29.224 29.5569C26.917 22.9632 19.1112 24.96 16.3416 24.7535ZM27.1086 29.9722C28.2217 30.9507 27.7977 32.4208 26.0658 33.5801C23.7306 35.1351 22.2329 34.6323 18.5379 31.032L15.8548 28.432C16.3715 28.4685 18.2198 28.6305 21.3609 28.6928C24.2495 28.7144 26.1691 29.1577 27.1086 29.9722Z" fill="white"/>
</svg>
