<svg width="86" height="92" viewBox="0 0 86 92" fill="none" xmlns="http://www.w3.org/2000/svg">
<path fill-rule="evenodd" clip-rule="evenodd" d="M57.1355 13.9035C55.7428 16.1534 52.7727 22.3188 52.7446 23.2881C52.637 25.623 54.1692 24.4939 56.2043 20.7535C57.9679 17.49 58.8791 15.9427 59.3089 15.098C60.2928 13.2349 58.0884 12.353 57.1355 13.9035ZM67.7606 19.712C66.3647 19.6902 53.4711 30.0762 52.5522 31.9708C52.2949 32.5013 52.9116 33.0111 53.6506 32.8546C54.3896 32.6982 56.7957 31.01 60.0368 28.346C63.6314 25.4088 67.4133 22.3753 68.2731 21.7625C69.6321 20.7834 69.3723 19.7447 67.7606 19.712ZM44.9477 12.2283C44.5354 12.3326 44.5291 12.47 44.461 14.8475C44.2467 23.8238 44.0029 24.7821 45.7816 25.3405C47.126 25.7585 47.172 25.6638 47.2445 21.2056C47.3487 16.0607 47.2562 13.5586 46.9923 13.1498C46.7072 12.6604 45.4525 12.0987 44.9477 12.2283ZM71.3532 26.5562C70.1892 26.5533 61.8506 31.0277 61.4371 31.8803C60.6652 33.4718 64.2312 32.4164 71.3503 28.9652C73.4857 27.918 73.4981 26.5667 71.3532 26.5562ZM36.1544 14.1185C34.5087 13.7416 35.1885 17.9328 36.9128 18.7691C38.2955 19.4397 38.7119 18.7055 38.116 16.6613C37.7741 15.419 37.3312 14.385 36.1544 14.1185ZM74.0504 35.8681C72.8638 35.9947 71.1208 36.6471 68.3247 37.2334C65.0167 37.9225 61.4429 38.7869 60.3016 39.1929C58.3408 39.8801 59.2652 40.7498 61.5147 40.2961C62.2699 40.1476 64.5335 39.7476 66.5354 39.4314C71.3108 38.6582 76.3053 37.6404 76.3972 37.4509C76.7718 36.7199 75.3204 35.7352 74.0504 35.8681ZM51.3345 26.2785C50.8763 26.4775 50.0522 28.3011 50.1867 28.8109C50.668 30.6358 53.2297 28.9996 52.894 27.0817C52.8225 26.6491 51.7418 26.1016 51.3345 26.2785ZM37.1829 21.568C36.6363 21.7008 36.6703 22.0449 37.6946 26.5202C38.8987 31.7847 39.0834 32.1083 40.741 32.0463C41.4991 32.0162 41.5075 31.833 41.0424 29.4778C39.8303 23.4839 38.6976 21.1793 37.1829 21.568ZM25.9309 21.2361C25.0718 21.4746 25.3173 21.9214 28.1992 25.4253C31.0973 28.9371 32.5425 31.1359 34.3508 34.6574C35.3732 36.6511 38.0296 38.0096 37.7718 36.3868C37.1388 32.8034 27.7256 20.7257 25.9309 21.2361ZM69.4902 46.762C58.6753 46.1505 57.7828 46.2092 58.0518 47.2289C58.1792 47.712 58.646 47.8681 60.8128 48.1234C74.9878 49.8028 75.142 50.0648 74.2682 48.0964C73.8161 47.0814 73.4469 46.9726 69.4902 46.762ZM54.3107 40.3595C52.468 41.0103 52.1611 41.353 52.8062 41.9701C54.1218 43.1932 57.4891 41.7605 57.4636 41.7716C57.5909 41.7163 57.7203 41.6153 57.7683 41.4747C57.8326 41.3421 57.8319 41.1779 57.7965 41.0438C57.3762 39.8804 56.2553 39.6644 54.3107 40.3595ZM45.0584 38.6804L43.9817 40.0305C41.8445 42.7384 38.7383 44.4615 37.2905 43.7593C36.2332 43.2465 36.3622 44.5963 37.4394 45.3995C38.8794 46.449 38.7714 50.2347 37.3662 53.2976C36.4226 55.3675 38.1936 56.2732 39.2519 54.9611C42.0028 51.5679 43.4791 50.3882 46.2093 49.6061C47.8859 49.1321 47.9941 48.9505 47.3785 47.6925C46.3909 45.6689 46.3383 44.8243 46.9754 41.108C47.7007 36.9196 45.8608 37.6888 45.0584 38.6804ZM21.2145 28.848C20.7054 29.0691 20.4572 29.5807 20.3945 30.58C20.3212 31.8082 20.7966 32.3196 25.1606 35.419C26.5936 36.4417 28.3363 37.7784 29.0232 38.3923C30.4364 39.6628 30.6287 39.6391 31.1029 38.3713C31.5404 37.1793 31.3939 36.5699 30.5366 35.6861C29.2485 34.4061 28.9041 34.122 25.8959 31.9142C24.3116 30.7479 22.769 29.5785 22.4408 29.3023C21.6564 28.6411 21.689 28.6569 21.2145 28.848ZM44.3384 44.5564C44.3881 45.2826 44.6442 46.0387 45.0906 46.8169C45.8221 48.0844 45.8554 48.2643 45.2755 48.2171C44.6956 48.1699 42.8274 48.8318 41.8262 49.4462L40.936 49.9974L40.894 48.9239C40.8429 47.8693 40.2909 46.3145 39.7668 45.7794C39.5291 45.5237 39.6239 45.4527 40.7142 45.0688C42.8533 44.3042 44.2261 42.3021 44.232 43.0772C44.2561 43.2761 44.2916 43.9487 44.3384 44.5564ZM52.2283 50.5361C51.3726 50.5189 51.4431 52.7764 52.3343 53.4661C53.8423 54.6655 61.3108 58.2409 61.4946 57.862C61.7611 57.3126 61.4086 55.7608 60.9007 55.2337C60.146 54.4698 52.9425 50.5548 52.2283 50.5361ZM63.1725 56.6397C62.3601 57.4861 63.318 59.074 65.5926 60.5984C67.8998 62.1386 68.3262 62.088 68.0188 60.2773C67.7385 58.784 63.8971 55.8912 63.1725 56.6397ZM30.548 42.2912C29.1988 42.8773 29.4399 45.4047 30.901 45.9963C31.9046 46.4128 32.4334 45.9438 32.5915 44.4993C32.739 43.2837 31.4552 41.9121 30.548 42.2912ZM23.526 40.0323C21.2954 39.5356 18.2311 38.728 16.5938 38.168C14.3576 37.4345 13.5896 37.3194 13.3782 37.7552C13.0107 38.513 13.9706 40.0552 15.0039 40.3691C15.3893 40.4858 16.7338 40.9038 17.9785 41.3203C23.0755 42.9498 26.8484 43.5393 26.8538 42.6994C26.8783 41.4476 25.7077 40.5054 23.526 40.0323ZM51.3294 59.3911C48.3692 59.5702 50.0983 63.0065 53.1731 63.0468C54.1285 63.0655 53.962 61.6274 53.3741 60.8508C52.4107 59.5644 52.1129 59.3498 51.3294 59.3911ZM45.2926 58.1249C44.1746 58.0273 43.4457 58.8673 43.8327 59.8507C43.9735 60.2232 44.6812 62.3685 45.4172 64.621C48.4297 73.9455 49.4585 76.3401 50.416 76.313C51.9484 76.2606 51.6532 74.5494 48.34 64.8919C46.5447 59.6448 45.8725 58.1721 45.2926 58.1249ZM29.5263 52.1866C28.2329 52.2848 13.5026 59.0419 13.1994 59.6672C12.6113 60.8797 14.9726 61.6037 16.7171 60.7414C18.0358 60.0938 21.9949 58.2695 27.4883 55.8086C32.3708 53.613 33.3485 51.8873 29.5263 52.1866ZM55.0943 65.3828C54.4451 65.3955 53.6483 66.0856 53.8287 66.5008C56.3553 71.9387 58.0995 73.6037 59.1103 71.5196C59.6638 70.3371 56.4089 65.3651 55.0943 65.3828ZM17.8673 50.0425C14.729 50.299 14.6271 50.3432 15.0318 51.1245C15.7945 52.6178 23.0302 52.406 22.3765 50.8954C21.9781 49.9767 20.964 49.7891 17.8673 50.0425ZM36.1816 58.9717C35.1117 59.2719 33.3833 62.1313 35.2031 63.0607C35.9097 63.4267 36.8692 62.8156 37.5442 61.3409C38.2467 59.8094 37.5386 58.5767 36.1816 58.9717ZM29.6027 58.8233C27.6229 59.9225 22.0839 64.0932 21.7806 64.7184C20.972 66.3857 25.5822 63.9644 30.2445 60.2345C32.1599 58.7295 31.6681 57.6719 29.6027 58.8233ZM41.1734 64.5053C40.047 65.1291 41.8289 76.6182 43.0367 76.5722C44.1031 76.5277 44.1023 75.8252 43.053 70.4485C41.991 64.8082 41.7794 64.1673 41.1734 64.5053ZM32.909 65.9265C31.936 66.1099 26.1827 76.7294 26.5627 77.686C27.363 79.8059 28.9438 78.1622 31.7945 72.243C34.3766 66.9191 34.6026 65.6246 32.909 65.9265Z" fill="white"/>
</svg>
