<svg width="150" height="177" viewBox="0 0 150 177" fill="none" xmlns="http://www.w3.org/2000/svg">
<path fill-rule="evenodd" clip-rule="evenodd" d="M122.309 72.7608C113.521 72.9311 109.682 71.1148 105.254 64.777C102.148 60.3995 99.2307 48.8461 100.619 46.6931C102.454 43.8536 99.3546 43.3253 92.0909 45.1592C79.4444 48.3522 66.5208 38.4246 58.3971 19.0913C55.7713 12.79 47.5028 13.6481 49.298 23.7642C53.731 48.6995 47.0361 67.2682 36.1093 60.6047C32.199 58.2328 27.4386 61.2372 29.5588 64.7166C36.769 76.3331 32.7846 98.8057 22.7515 103.059C18.257 104.932 18.8659 108.71 23.4705 107.547C30.345 105.811 49.1177 123.604 53.6169 136.233C56.5797 144.415 63.26 138.631 64.3951 137.116C70.3105 129.395 74.6619 132.148 83.9983 149.455C90.6701 161.945 96.4675 165.233 97.3893 157.135C100.103 133.181 103.651 124.828 112.16 122.189C118.632 120.227 118.47 120.678 117.59 108.447C116.858 97.8981 117.19 92.6527 118.857 88.8726C120.569 84.999 125.998 78.6297 128.67 77.4635C134.364 74.8788 131.291 72.5414 122.309 72.7608ZM113.255 81.4383C103.584 93.1384 106.417 102.173 110.137 117.456L105.027 119.074C97.6398 121.512 93.0413 127.344 90.9389 137.051C90.1343 140.696 89.9201 140.667 87.4109 136.467C76.7513 118.839 60.7193 127.475 59.0007 127.5C58.7932 127.224 52.2902 111.578 38.8083 104.904C33.4453 102.243 33.5232 102.551 36.9347 99.3957C47.3446 89.8031 40.2525 67.9979 40.2656 67.503C40.5055 67.3605 61.3236 62.1042 61.0141 44.4849C60.9692 40.4816 60.9042 40.4975 62.3891 42.007C63.2062 42.7839 65.8714 45.143 68.4393 47.1165C77.0444 53.8746 81.4675 52.2664 93.3811 49.9959C93.4783 50.381 88.6892 74.8583 112.321 77.7405L115.959 78.2148L113.255 81.4383Z" fill="#018DDF" fill-opacity="0.5"/>
</svg>
