<svg width="1434" height="245" viewBox="0 0 1434 245" fill="none" xmlns="http://www.w3.org/2000/svg">
<path fill-rule="evenodd" clip-rule="evenodd" d="M482 137.187L504.245 107.239C526.49 77.2913 572.216 17.3954 616.706 11.4058C661.196 5.41616 706.922 53.3329 751.412 59.3225C797.137 65.3121 841.627 29.3745 886.117 17.3954C931.843 5.41616 976.333 17.3954 1020.82 29.3745C1066.55 41.3537 1111.04 53.3329 1155.53 65.3121C1201.25 77.2913 1245.74 89.2705 1291.47 77.2913C1335.96 65.3121 1380.45 29.3745 1426.18 11.4058C1470.67 -6.56303 1515.16 -6.56303 1560.88 35.3641C1605.37 77.2913 1649.86 161.146 1695.59 179.114C1740.08 197.083 1785.8 149.166 1830.29 125.208C1874.78 101.25 1920.51 101.25 1942.75 101.25H1965V245H1942.75C1920.51 245 1874.78 245 1830.29 245C1785.8 245 1740.08 245 1695.59 245C1649.86 245 1605.37 245 1560.88 245C1515.16 245 1470.67 245 1426.18 245C1380.45 245 1335.96 245 1291.47 245C1245.74 245 1201.25 245 1155.53 245C1111.04 245 1066.55 245 1020.82 245C976.333 245 931.843 245 886.117 245C841.627 245 797.137 245 751.412 245C706.922 245 661.196 245 616.706 245C572.216 245 526.49 245 504.245 245H482V137.187Z" fill="#E0E2E3"/>
<path fill-rule="evenodd" clip-rule="evenodd" d="M-404 137.187L-381.755 107.239C-359.51 77.2913 -313.784 17.3954 -269.294 11.4058C-224.804 5.41616 -179.078 53.3329 -134.588 59.3225C-88.8625 65.3121 -44.3725 29.3745 0.117485 17.3954C45.8433 5.41616 90.3333 17.3954 134.823 29.3745C180.549 41.3537 225.039 53.3329 269.529 65.3121C315.255 77.2913 359.745 89.2705 405.471 77.2913C449.961 65.3121 494.451 29.3745 540.177 11.4058C584.667 -6.56303 629.157 -6.56303 674.882 35.3641C719.372 77.2913 763.862 161.146 809.588 179.114C854.078 197.083 899.804 149.166 944.294 125.208C988.784 101.25 1034.51 101.25 1056.75 101.25H1079V245H1056.75C1034.51 245 988.784 245 944.294 245C899.804 245 854.078 245 809.588 245C763.862 245 719.372 245 674.882 245C629.157 245 584.667 245 540.177 245C494.451 245 449.961 245 405.471 245C359.745 245 315.255 245 269.529 245C225.039 245 180.549 245 134.823 245C90.3333 245 45.8433 245 0.117485 245C-44.3725 245 -88.8625 245 -134.588 245C-179.078 245 -224.804 245 -269.294 245C-313.784 245 -359.51 245 -381.755 245H-404V137.187Z" fill="#E0E2E3"/>
</svg>
