<svg width="123" height="215" viewBox="0 0 123 215" fill="none" xmlns="http://www.w3.org/2000/svg">
<path d="M36.7451 211.703C26.7209 210.595 13.2572 208.809 3.68003 206.043M3.68003 206.043C2.57646 205.725 7.30687 198.518 7.55301 198.205C12.9456 191.316 19.0742 185.345 25.451 179.393M3.68003 206.043C58.1467 199.964 97.5917 161.049 98.6378 121.991C98.7415 118.12 98.8504 113.907 98.5837 109.702M98.5837 109.702C98.1591 103.005 96.7822 96.3303 92.9161 91.0942C89.3479 86.262 82.664 81.4702 76.4261 82.236C64.7736 83.667 61.3566 98.8584 69.2339 106.981C76.156 114.12 90.7418 115.641 98.5837 109.702ZM98.5837 109.702C98.7491 109.576 98.9115 109.448 99.0708 109.316C137.514 77.4719 115.706 22.9814 79.8308 3.44662" stroke="#018DE2" stroke-opacity="0.5" stroke-width="5.58817" stroke-miterlimit="1.5" stroke-linecap="round" stroke-linejoin="round"/>
</svg>
