<svg width="200" height="235" viewBox="0 0 200 235" fill="none" xmlns="http://www.w3.org/2000/svg">
<path d="M118.793 201.891C87.372 187.385 59.8636 165.121 48.7974 130.813C38.8091 99.8447 49.2243 70.453 86.2776 73.3745C103.818 74.7572 123.685 88.0552 125.607 106.621C127.747 127.305 100.354 126.229 88.3656 119.278C60.3654 103.041 45.6589 65.5535 61.0371 33.7207C79.2485 -3.97675 114.884 20.4255 114.652 20.5942" stroke="#F9C02B" stroke-opacity="0.5" stroke-width="6.79294" stroke-miterlimit="1.5" stroke-linecap="round" stroke-linejoin="round"/>
<path d="M82.9055 216.01C85.5425 213.246 89.0382 211.869 92.4556 210.317C103.676 205.221 117.399 203.298 129.324 207.372C118.443 199.162 107.1 184.857 108.592 170.664" stroke="#F9C02B" stroke-opacity="0.5" stroke-width="6.79294" stroke-miterlimit="1.5" stroke-linecap="round" stroke-linejoin="round"/>
</svg>
