<svg width="246" height="379" viewBox="0 0 246 379" fill="none" xmlns="http://www.w3.org/2000/svg">
<path d="M116.01 324.598C118.489 320.538 119.73 318.508 121.583 318.508C123.436 318.508 124.677 320.538 127.156 324.598L127.799 325.649C128.504 326.803 128.856 327.379 129.405 327.758C129.953 328.14 130.642 328.283 132.009 328.565L133.255 328.823C138.072 329.816 140.481 330.313 141.053 331.996C141.629 333.676 139.984 335.428 136.701 338.934L135.851 339.842C134.919 340.835 134.453 341.336 134.246 341.95C134.03 342.565 134.101 343.23 134.246 344.559L134.371 345.768C134.868 350.442 135.115 352.78 133.615 353.82C132.115 354.856 129.863 353.913 125.351 352.019L124.184 351.525C122.903 350.989 122.265 350.718 121.583 350.718C120.905 350.718 120.263 350.989 118.982 351.525L117.815 352.019C113.303 353.913 111.051 354.86 109.551 353.82C108.051 352.784 108.298 350.442 108.795 345.768L108.92 344.559C109.065 343.23 109.136 342.565 108.92 341.95C108.713 341.336 108.247 340.835 107.315 339.842L106.465 338.934C103.183 335.431 101.538 333.68 102.113 331.996C102.685 330.317 105.09 329.816 109.907 328.823L111.157 328.565C112.528 328.279 113.209 328.14 113.761 327.761C114.31 327.379 114.662 326.803 115.367 325.652L116.01 324.598Z" stroke="white" stroke-width="5.42308"/>
<path d="M122.167 304V311.148V304ZM122.167 368.334V375.482V368.334ZM83 339.741H90.8333H83ZM153.5 339.741H161.333H153.5Z" fill="white"/>
<path d="M122.167 304V311.148M122.167 368.334V375.482M83 339.741H90.8333M153.5 339.741H161.333" stroke="white" stroke-width="5.42308" stroke-linecap="round"/>
<path d="M99 357.529L100.343 356.303M144.657 315.866L146 314.64M146 357.529L144.657 356.303M100.343 315.866L99 314.64" stroke="white" stroke-width="5.42308" stroke-linecap="round"/>
<path d="M197.593 193.96C200.073 189.9 201.314 187.87 203.167 187.87C205.019 187.87 206.261 189.9 208.74 193.96L209.382 195.011C210.087 196.166 210.44 196.741 210.988 197.12C211.537 197.502 212.226 197.645 213.593 197.928L214.838 198.185C219.656 199.179 222.065 199.675 222.636 201.359C223.212 203.039 221.567 204.79 218.285 208.296L217.435 209.204C216.503 210.198 216.037 210.698 215.829 211.313C215.614 211.927 215.684 212.592 215.829 213.922L215.955 215.13C216.452 219.805 216.699 222.142 215.199 223.182C213.699 224.219 211.447 223.275 206.935 221.381L205.767 220.888C204.487 220.352 203.848 220.08 203.167 220.08C202.489 220.08 201.847 220.352 200.566 220.888L199.399 221.381C194.887 223.275 192.635 224.222 191.135 223.182C189.635 222.146 189.881 219.805 190.379 215.13L190.504 213.922C190.649 212.592 190.72 211.927 190.504 211.313C190.297 210.698 189.83 210.198 188.898 209.204L188.048 208.296C184.766 204.794 183.121 203.042 183.697 201.359C184.269 199.679 186.674 199.179 191.491 198.185L192.741 197.928C194.111 197.642 194.793 197.502 195.345 197.123C195.893 196.741 196.246 196.166 196.951 195.015L197.593 193.96Z" stroke="white" stroke-width="5.42308"/>
<g opacity="0.5">
<path d="M203.167 170V177.148V170ZM203.167 234.334V241.482V234.334ZM164 205.741H171.833H164ZM234.5 205.741H242.333H234.5Z" fill="white"/>
<path d="M203.167 170V177.148M203.167 234.334V241.482M164 205.741H171.833M234.5 205.741H242.333" stroke="white" stroke-width="5.42308" stroke-linecap="round"/>
</g>
<path d="M179.667 227.187L181.01 225.961M225.324 185.523L226.667 184.297M226.667 227.187L225.324 225.961M181.01 185.523L179.667 184.297" stroke="white" stroke-width="5.42308" stroke-linecap="round"/>
<path d="M36.5933 246.961C39.0726 242.901 40.3142 240.871 42.1667 240.871C44.0193 240.871 45.2609 242.901 47.7402 246.961L48.3825 248.012C49.0875 249.166 49.44 249.742 49.9883 250.12C50.5367 250.503 51.226 250.646 52.5929 250.928L53.8384 251.185C58.6559 252.179 61.0647 252.676 61.6365 254.359C62.2123 256.039 60.5672 257.79 57.2851 261.297L56.4352 262.204C55.503 263.198 55.0369 263.698 54.8293 264.313C54.6139 264.928 54.6844 265.593 54.8293 266.922L54.9547 268.13C55.4521 272.805 55.6988 275.143 54.1987 276.183C52.6987 277.219 50.4466 276.276 45.9346 274.381L44.7674 273.888C43.4867 273.352 42.8482 273.08 42.1667 273.08C41.4892 273.08 40.8468 273.352 39.5661 273.888L38.3989 274.381C33.8869 276.276 31.6348 277.223 30.1347 276.183C28.6347 275.146 28.8814 272.805 29.3788 268.13L29.5042 266.922C29.6491 265.593 29.7196 264.928 29.5042 264.313C29.2966 263.698 28.8305 263.198 27.8983 262.204L27.0484 261.297C23.7662 257.794 22.1212 256.043 22.697 254.359C23.2688 252.679 25.6737 252.179 30.4912 251.185L31.7406 250.928C33.1114 250.642 33.7929 250.503 34.3452 250.124C34.8935 249.742 35.246 249.166 35.951 248.015L36.5933 246.961Z" stroke="white" stroke-width="5.42308"/>
<g opacity="0.5">
<path d="M42.1667 223V230.148V223ZM42.1667 287.334V294.482V287.334ZM3 258.741H10.8333H3ZM73.5 258.741H81.3333H73.5Z" fill="white"/>
<path d="M42.1667 223V230.148M42.1667 287.334V294.482M3 258.741H10.8333M73.5 258.741H81.3333" stroke="white" stroke-width="5.42308" stroke-linecap="round"/>
</g>
<path d="M18.667 280.187L20.0104 278.961M64.3236 238.523L65.667 237.297M65.667 280.187L64.3236 278.961M20.0104 238.523L18.667 237.297" stroke="white" stroke-width="5.42308" stroke-linecap="round"/>
<path d="M101.031 36.5449C104.502 30.8607 106.24 28.0186 108.833 28.0186C111.427 28.0186 113.165 30.8607 116.636 36.5449L117.535 38.0161C118.522 39.6323 119.016 40.4379 119.784 40.9683C120.551 41.5037 121.516 41.7038 123.43 42.0991L125.174 42.4594C131.918 43.8504 135.291 44.5459 136.091 46.9027C136.897 49.2545 134.594 51.7063 129.999 56.615L128.809 57.8859C127.504 59.277 126.852 59.9775 126.561 60.8382C126.259 61.6988 126.358 62.6295 126.561 64.4909L126.737 66.1822C127.433 72.7271 127.778 75.9995 125.678 77.4556C123.578 78.9067 120.425 77.5857 114.108 74.9337L112.474 74.2432C110.681 73.4927 109.788 73.1124 108.833 73.1124C107.885 73.1124 106.986 73.4927 105.193 74.2432L103.558 74.9337C97.2417 77.5857 94.0888 78.9117 91.9886 77.4556C89.8885 76.0045 90.234 72.7271 90.9304 66.1822L91.1058 64.4909C91.3087 62.6295 91.4074 61.6988 91.1058 60.8382C90.8152 59.9775 90.1627 59.277 88.8577 57.8859L87.6678 56.615C83.0727 51.7113 80.7697 49.2595 81.5758 46.9027C82.3764 44.551 85.7431 43.8504 92.4876 42.4594L94.2368 42.0991C96.156 41.6988 97.1101 41.5037 97.8832 40.9733C98.6509 40.4379 99.1444 39.6323 100.131 38.0211L101.031 36.5449Z" stroke="white" stroke-width="5.42308"/>
<g opacity="0.5">
<path d="M108.833 3V13.0075V3ZM108.833 93.0676V103.075V93.0676ZM54 53.0375H64.9667H54ZM152.7 53.0375H163.667H152.7Z" fill="white"/>
<path d="M108.833 3V13.0075M108.833 93.0675V103.075M54 53.0375H64.9667M152.7 53.0375H163.667" stroke="white" stroke-width="5.42308" stroke-linecap="round"/>
</g>
<path d="M75.9338 83.0611L77.8146 81.3449M139.853 24.7324L141.734 23.0161M141.734 83.0611L139.853 81.3449M77.8146 24.7324L75.9338 23.0161" stroke="white" stroke-width="5.42308" stroke-linecap="round"/>
</svg>
